<?xml version="1.0"?>
<svg xmlns="http://www.w3.org/2000/svg" xmlns:xlink="http://www.w3.org/1999/xlink" xmlns:svgjs="http://svgjs.com/svgjs" version="1.1" width="512" height="512" x="0" y="0" viewBox="0 0 682.66669 682" style="enable-background:new 0 0 512 512" xml:space="preserve" class=""><g><path xmlns="http://www.w3.org/2000/svg" d="m640 86.65625v283.972656c0 48.511719-39.472656 87.988282-87.988281 87.988282h-279.152344l-185.183594 128.863281v-128.863281c-48.375-.164063-87.675781-39.574219-87.675781-87.988282v-283.972656c0-48.515625 39.472656-87.988281 87.988281-87.988281h464.023438c48.515625 0 87.988281 39.472656 87.988281 87.988281zm0 0" fill="#ffd300" data-original="#ffdb2d" style="" class=""/><path xmlns="http://www.w3.org/2000/svg" d="m640 86.65625v283.972656c0 48.511719-39.472656 87.988282-87.988281 87.988282h-232.109375v-459.949219h232.109375c48.515625 0 87.988281 39.472656 87.988281 87.988281zm0 0" fill="#ffaa20" data-original="#ffaa20" style="" class=""/><g xmlns="http://www.w3.org/2000/svg" fill="#fff"><path d="m171.296875 131.167969h297.40625v37.5h-297.40625zm0 0" fill="#ffffff" data-original="#ffffff" style="" class=""/><path d="m171.296875 211.167969h297.40625v37.5h-297.40625zm0 0" fill="#ffffff" data-original="#ffffff" style="" class=""/><path d="m171.296875 291.167969h297.40625v37.5h-297.40625zm0 0" fill="#ffffff" data-original="#ffffff" style="" class=""/></g><path xmlns="http://www.w3.org/2000/svg" d="m319.902344 131.167969h148.800781v37.5h-148.800781zm0 0" fill="#e1e1e3" data-original="#e1e1e3" style="" class=""/><path xmlns="http://www.w3.org/2000/svg" d="m319.902344 211.167969h148.800781v37.5h-148.800781zm0 0" fill="#e1e1e3" data-original="#e1e1e3" style="" class=""/><path xmlns="http://www.w3.org/2000/svg" d="m319.902344 291.167969h148.800781v37.5h-148.800781zm0 0" fill="#e1e1e3" data-original="#e1e1e3" style="" class=""/></g></svg>
