<?xml version="1.0"?>
<svg xmlns="http://www.w3.org/2000/svg" xmlns:xlink="http://www.w3.org/1999/xlink" xmlns:svgjs="http://svgjs.com/svgjs" version="1.1" width="512" height="512" x="0" y="0" viewBox="0 0 24 24" style="enable-background:new 0 0 512 512" xml:space="preserve"><g><path xmlns="http://www.w3.org/2000/svg" d="m22.25 1h-2.5c-.965 0-1.75.785-1.75 1.75v11.5c0 .965.785 1.75 1.75 1.75h2.5c.965 0 1.75-.785 1.75-1.75v-11.5c0-.965-.785-1.75-1.75-1.75z" fill="#ff0c0c" data-original="#000000" style=""/><path xmlns="http://www.w3.org/2000/svg" d="m5.119.75c-1.95 0-3.61 1.4-3.94 3.32l-1.12 6.5c-.42 2.45 1.46 4.68 3.94 4.68h4.72s-.75 1.5-.75 4c0 3 2.25 4 3.25 4s1.5-.5 1.5-3c0-2.376 2.301-4.288 3.781-5.273v-12.388c-1.601-.741-4.806-1.839-9.781-1.839z" fill="#ff0c0c" data-original="#000000" style=""/></g></svg>
